<svg xmlns="http://www.w3.org/2000/svg" viewBox="0 0 1000 700" width="1200" height="840">
  <defs>
    <linearGradient id="bg" x1="0" y1="0" x2="0" y2="1"><stop offset="0%" stop-color="#0f172a"/><stop offset="100%" stop-color="#020617"/></linearGradient>
    <linearGradient id="hdr" x1="0" y1="0" x2="0" y2="1"><stop offset="0%" stop-color="#1e293b"/><stop offset="100%" stop-color="#0f172a"/></linearGradient>
    <linearGradient id="star3" x1="0" y1="0" x2="0" y2="1"><stop offset="0%" stop-color="#065f46"/><stop offset="100%" stop-color="#064e3b"/></linearGradient>
    <linearGradient id="star2" x1="0" y1="0" x2="0" y2="1"><stop offset="0%" stop-color="#713f12"/><stop offset="100%" stop-color="#78350f"/></linearGradient>
    <linearGradient id="star1" x1="0" y1="0" x2="0" y2="1"><stop offset="0%" stop-color="#7f1d1d"/><stop offset="100%" stop-color="#991b1b"/></linearGradient>
    <linearGradient id="star0" x1="0" y1="0" x2="0" y2="1"><stop offset="0%" stop-color="#1e293b"/><stop offset="100%" stop-color="#0f172a"/></linearGradient>
    <filter id="shadow"><feDropShadow dx="0" dy="2" stdDeviation="4" flood-color="#000" flood-opacity="0.2"/></filter>
  </defs>
  <rect width="1000" height="700" fill="url(#bg)"/>

  <text x="500" y="45" text-anchor="middle" font-family="system-ui,sans-serif" font-size="30" font-weight="800" fill="#e2e8f0">竞品能力对比</text>
  <text x="500" y="70" text-anchor="middle" font-family="system-ui,sans-serif" font-size="14" fill="#64748b">FlowWiki vs GitHub 同类 LLM Wiki 项目 · 7 项核心能力矩阵</text>

  <!-- Table -->
  <g filter="url(#shadow)">
    <!-- Header -->
    <rect x="50" y="95" width="180" height="52" rx="6" fill="url(#hdr)" stroke="#334155" stroke-width="0.5"/>
    <text x="140" y="126" text-anchor="middle" font-family="system-ui,sans-serif" font-size="14" font-weight="700" fill="#94a3b8">维度 / 项目</text>

    <!-- Header cells -->
    <rect x="235" y="95" width="145" height="52" rx="6" fill="url(#hdr)" stroke="#1e40af" stroke-width="1"/>
    <text x="307" y="121" text-anchor="middle" font-family="system-ui,sans-serif" font-size="15" font-weight="800" fill="#60a5fa">FlowWiki</text>
    <text x="307" y="138" text-anchor="middle" font-family="system-ui,sans-serif" font-size="11" fill="#93c5fd">★ 本项目</text>

    <rect x="385" y="95" width="145" height="52" rx="6" fill="url(#hdr)" stroke="#334155" stroke-width="0.5"/>
    <text x="457" y="126" text-anchor="middle" font-family="system-ui,sans-serif" font-size="13" font-weight="700" fill="#cbd5e1">llm-wiki-agent</text>
    <rect x="535" y="95" width="145" height="52" rx="6" fill="url(#hdr)" stroke="#334155" stroke-width="0.5"/>
    <text x="607" y="126" text-anchor="middle" font-family="system-ui,sans-serif" font-size="13" font-weight="700" fill="#cbd5e1">claude-obsidian</text>
    <rect x="685" y="95" width="145" height="52" rx="6" fill="url(#hdr)" stroke="#334155" stroke-width="0.5"/>
    <text x="757" y="126" text-anchor="middle" font-family="system-ui,sans-serif" font-size="13" font-weight="700" fill="#cbd5e1">llm-wiki-compiler</text>
    <rect x="835" y="95" width="145" height="52" rx="6" fill="url(#hdr)" stroke="#334155" stroke-width="0.5"/>
    <text x="907" y="126" text-anchor="middle" font-family="system-ui,sans-serif" font-size="13" font-weight="700" fill="#cbd5e1">synthadoc</text>

    <!-- Data rows -->
    <!-- Row: 防幻觉 -->
    <rect x="50" y="152" width="180" height="62" rx="4" fill="#0f172a" stroke="#1e293b" stroke-width="0.5"/>
    <text x="140" y="181" text-anchor="middle" font-family="system-ui,sans-serif" font-size="14" font-weight="600" fill="#e2e8f0">防幻觉机制</text>
    <text x="140" y="200" text-anchor="middle" font-family="system-ui,sans-serif" font-size="11" fill="#64748b">Anti-Hallucination</text>

    <rect x="235" y="152" width="145" height="62" rx="4" fill="url(#star3)"/>
    <text x="307" y="188" text-anchor="middle" font-family="system-ui,sans-serif" font-size="20" fill="#6ee7b7">★★★</text>
    <rect x="385" y="152" width="145" height="62" rx="4" fill="url(#star1)"/>
    <text x="457" y="188" text-anchor="middle" font-family="system-ui,sans-serif" font-size="16" fill="#fca5a5">★☆☆</text>
    <rect x="535" y="152" width="145" height="62" rx="4" fill="url(#star0)"/>
    <text x="607" y="188" text-anchor="middle" font-family="system-ui,sans-serif" font-size="16" fill="#475569">---</text>
    <rect x="685" y="152" width="145" height="62" rx="4" fill="url(#star0)"/>
    <text x="757" y="188" text-anchor="middle" font-family="system-ui,sans-serif" font-size="16" fill="#475569">---</text>
    <rect x="835" y="152" width="145" height="62" rx="4" fill="url(#star2)"/>
    <text x="907" y="188" text-anchor="middle" font-family="system-ui,sans-serif" font-size="20" fill="#fcd34d">★★☆</text>

    <!-- Row: 跨会话记忆 -->
    <rect x="50" y="219" width="180" height="62" rx="4" fill="#1e293b" stroke="#1e293b" stroke-width="0.5"/>
    <text x="140" y="248" text-anchor="middle" font-family="system-ui,sans-serif" font-size="14" font-weight="600" fill="#e2e8f0">跨会话记忆</text>
    <rect x="235" y="219" width="145" height="62" rx="4" fill="url(#star3)"/>
    <text x="307" y="255" text-anchor="middle" font-family="system-ui,sans-serif" font-size="20" fill="#6ee7b7">★★★</text>
    <rect x="385" y="219" width="145" height="62" rx="4" fill="url(#star0)"/>
    <text x="457" y="255" text-anchor="middle" font-family="system-ui,sans-serif" font-size="16" fill="#475569">---</text>
    <rect x="535" y="219" width="145" height="62" rx="4" fill="url(#star1)"/>
    <text x="607" y="255" text-anchor="middle" font-family="system-ui,sans-serif" font-size="16" fill="#fca5a5">★☆☆</text>
    <rect x="685" y="219" width="145" height="62" rx="4" fill="url(#star0)"/>
    <text x="757" y="255" text-anchor="middle" font-family="system-ui,sans-serif" font-size="16" fill="#475569">---</text>
    <rect x="835" y="219" width="145" height="62" rx="4" fill="url(#star0)"/>
    <text x="907" y="255" text-anchor="middle" font-family="system-ui,sans-serif" font-size="16" fill="#475569">---</text>

    <!-- Row: 多Agent -->
    <rect x="50" y="286" width="180" height="62" rx="4" fill="#0f172a" stroke="#1e293b" stroke-width="0.5"/>
    <text x="140" y="315" text-anchor="middle" font-family="system-ui,sans-serif" font-size="14" font-weight="600" fill="#e2e8f0">多 Agent 兼容</text>
    <rect x="235" y="286" width="145" height="62" rx="4" fill="url(#star3)"/>
    <text x="307" y="322" text-anchor="middle" font-family="system-ui,sans-serif" font-size="20" fill="#6ee7b7">★★★</text>
    <rect x="385" y="286" width="145" height="62" rx="4" fill="url(#star2)"/>
    <text x="457" y="322" text-anchor="middle" font-family="system-ui,sans-serif" font-size="20" fill="#fcd34d">★★☆</text>
    <rect x="535" y="286" width="145" height="62" rx="4" fill="url(#star1)"/>
    <text x="607" y="322" text-anchor="middle" font-family="system-ui,sans-serif" font-size="16" fill="#fca5a5">★☆☆</text>
    <rect x="685" y="286" width="145" height="62" rx="4" fill="url(#star1)"/>
    <text x="757" y="322" text-anchor="middle" font-family="system-ui,sans-serif" font-size="16" fill="#fca5a5">★☆☆</text>
    <rect x="835" y="286" width="145" height="62" rx="4" fill="url(#star2)"/>
    <text x="907" y="322" text-anchor="middle" font-family="system-ui,sans-serif" font-size="20" fill="#fcd34d">★★☆</text>

    <!-- Row: 人类UX -->
    <rect x="50" y="353" width="180" height="62" rx="4" fill="#1e293b" stroke="#1e293b" stroke-width="0.5"/>
    <text x="140" y="382" text-anchor="middle" font-family="system-ui,sans-serif" font-size="14" font-weight="600" fill="#e2e8f0">人类 UX</text>
    <rect x="235" y="353" width="145" height="62" rx="4" fill="url(#star3)"/>
    <text x="307" y="389" text-anchor="middle" font-family="system-ui,sans-serif" font-size="20" fill="#6ee7b7">★★★</text>
    <rect x="385" y="353" width="145" height="62" rx="4" fill="url(#star0)"/>
    <text x="457" y="389" text-anchor="middle" font-family="system-ui,sans-serif" font-size="16" fill="#475569">---</text>
    <rect x="535" y="353" width="145" height="62" rx="4" fill="url(#star3)"/>
    <text x="607" y="389" text-anchor="middle" font-family="system-ui,sans-serif" font-size="20" fill="#6ee7b7">★★★</text>
    <rect x="685" y="353" width="145" height="62" rx="4" fill="url(#star2)"/>
    <text x="757" y="389" text-anchor="middle" font-family="system-ui,sans-serif" font-size="20" fill="#fcd34d">★★☆</text>
    <rect x="835" y="353" width="145" height="62" rx="4" fill="url(#star2)"/>
    <text x="907" y="389" text-anchor="middle" font-family="system-ui,sans-serif" font-size="20" fill="#fcd34d">★★☆</text>

    <!-- Row: 知识→能力 -->
    <rect x="50" y="420" width="180" height="62" rx="4" fill="#0f172a" stroke="#1e293b" stroke-width="0.5"/>
    <text x="140" y="449" text-anchor="middle" font-family="system-ui,sans-serif" font-size="14" font-weight="600" fill="#e2e8f0">知识→能力</text>
    <rect x="235" y="420" width="145" height="62" rx="4" fill="url(#star3)"/>
    <text x="307" y="456" text-anchor="middle" font-family="system-ui,sans-serif" font-size="20" fill="#6ee7b7">★★★</text>
    <rect x="385" y="420" width="145" height="62" rx="4" fill="url(#star0)"/>
    <text x="457" y="456" text-anchor="middle" font-family="system-ui,sans-serif" font-size="16" fill="#475569">---</text>
    <rect x="535" y="420" width="145" height="62" rx="4" fill="url(#star0)"/>
    <text x="607" y="456" text-anchor="middle" font-family="system-ui,sans-serif" font-size="16" fill="#475569">---</text>
    <rect x="685" y="420" width="145" height="62" rx="4" fill="url(#star0)"/>
    <text x="757" y="456" text-anchor="middle" font-family="system-ui,sans-serif" font-size="16" fill="#475569">---</text>
    <rect x="835" y="420" width="145" height="62" rx="4" fill="url(#star0)"/>
    <text x="907" y="456" text-anchor="middle" font-family="system-ui,sans-serif" font-size="16" fill="#475569">---</text>

    <!-- Row: 变更追溯 -->
    <rect x="50" y="487" width="180" height="62" rx="4" fill="#1e293b" stroke="#1e293b" stroke-width="0.5"/>
    <text x="140" y="516" text-anchor="middle" font-family="system-ui,sans-serif" font-size="14" font-weight="600" fill="#e2e8f0">变更追溯</text>
    <rect x="235" y="487" width="145" height="62" rx="4" fill="url(#star3)"/>
    <text x="307" y="523" text-anchor="middle" font-family="system-ui,sans-serif" font-size="20" fill="#6ee7b7">★★★</text>
    <rect x="385" y="487" width="145" height="62" rx="4" fill="url(#star0)"/>
    <text x="457" y="523" text-anchor="middle" font-family="system-ui,sans-serif" font-size="16" fill="#475569">---</text>
    <rect x="535" y="487" width="145" height="62" rx="4" fill="url(#star0)"/>
    <text x="607" y="523" text-anchor="middle" font-family="system-ui,sans-serif" font-size="16" fill="#475569">---</text>
    <rect x="685" y="487" width="145" height="62" rx="4" fill="url(#star0)"/>
    <text x="757" y="523" text-anchor="middle" font-family="system-ui,sans-serif" font-size="16" fill="#475569">---</text>
    <rect x="835" y="487" width="145" height="62" rx="4" fill="url(#star0)"/>
    <text x="907" y="523" text-anchor="middle" font-family="system-ui,sans-serif" font-size="16" fill="#475569">---</text>

    <!-- Row: 自适应检索 -->
    <rect x="50" y="554" width="180" height="62" rx="4" fill="#0f172a" stroke="#1e293b" stroke-width="0.5"/>
    <text x="140" y="583" text-anchor="middle" font-family="system-ui,sans-serif" font-size="14" font-weight="600" fill="#e2e8f0">自适应检索</text>
    <rect x="235" y="554" width="145" height="62" rx="4" fill="url(#star3)"/>
    <text x="307" y="590" text-anchor="middle" font-family="system-ui,sans-serif" font-size="20" fill="#6ee7b7">★★★</text>
    <rect x="385" y="554" width="145" height="62" rx="4" fill="url(#star0)"/>
    <text x="457" y="590" text-anchor="middle" font-family="system-ui,sans-serif" font-size="16" fill="#475569">---</text>
    <rect x="535" y="554" width="145" height="62" rx="4" fill="url(#star2)"/>
    <text x="607" y="590" text-anchor="middle" font-family="system-ui,sans-serif" font-size="20" fill="#fcd34d">★★☆</text>
    <rect x="685" y="554" width="145" height="62" rx="4" fill="url(#star1)"/>
    <text x="757" y="590" text-anchor="middle" font-family="system-ui,sans-serif" font-size="16" fill="#fca5a5">★☆☆</text>
    <rect x="835" y="554" width="145" height="62" rx="4" fill="url(#star2)"/>
    <text x="907" y="590" text-anchor="middle" font-family="system-ui,sans-serif" font-size="20" fill="#fcd34d">★★☆</text>
  </g>

  <!-- Legend -->
  <rect x="50" y="640" width="16" height="16" rx="4" fill="#065f46"/>
  <text x="75" y="653" font-family="system-ui,sans-serif" font-size="13" fill="#6ee7b7">★★★ 行业领先</text>
  <rect x="200" y="640" width="16" height="16" rx="4" fill="#713f12"/>
  <text x="225" y="653" font-family="system-ui,sans-serif" font-size="13" fill="#fcd34d">★★ 部分支持</text>
  <rect x="350" y="640" width="16" height="16" rx="4" fill="#7f1d1d"/>
  <text x="375" y="653" font-family="system-ui,sans-serif" font-size="13" fill="#fca5a5">★ 基础支持</text>
  <rect x="500" y="640" width="16" height="16" rx="4" fill="#1e293b"/>
  <text x="525" y="653" font-family="system-ui,sans-serif" font-size="13" fill="#475569">--- 不支持</text>

  <text x="900" y="653" text-anchor="end" font-family="system-ui,sans-serif" font-size="13" fill="#475569">数据来源: GitHub 仓库分析 2026-07</text>
</svg>
